HIERARCHY
ROOT root
{
  OFFSET 0 90.5966 0 //
  CHANNELS 6 Xposition Yposition Zposition Zrotation Xrotation Yrotation
  JOINT torso_1
  {
    OFFSET 0 4.93189 -1.1181
    CHANNELS 6 Xposition Yposition Zposition Zrotation Xrotation Yrotation
    JOINT torso_2
    {
      OFFSET 0 5.45428 1.04046
      CHANNELS 6 Xposition Yposition Zposition Zrotation Xrotation Yrotation
      JOINT torso_3
      {
        OFFSET -9.96389e-18 5.81666 0.111686
        CHANNELS 6 Xposition Yposition Zposition Zrotation Xrotation Yrotation
        JOINT torso_4
        {
          OFFSET -1.07264e-17 6.3178 -0.430704
          CHANNELS 6 Xposition Yposition Zposition Zrotation Xrotation Yrotation
          JOINT torso_5
          {
            OFFSET -1.91593e-17 7.38567 -1.4624
            CHANNELS 6 Xposition Yposition Zposition Zrotation Xrotation Yrotation
            JOINT torso_6
            {
              OFFSET -2.45986e-17 9.22288 -0.888062
              CHANNELS 6 Xposition Yposition Zposition Zrotation Xrotation Yrotation
              JOINT torso_7
              {
                OFFSET -2.82008e-17 10.2464 1.53133
                CHANNELS 6 Xposition Yposition Zposition Zrotation Xrotation Yrotation
                JOINT neck_1
                {
                  OFFSET -1.25459e-17 4.64811 0.694664
                  CHANNELS 6 Xposition Yposition Zposition Zrotation Xrotation Yrotation
                  JOINT neck_2
                  {
                    OFFSET -1.75924e-17 4.68175 0.4096
                    CHANNELS 6 Xposition Yposition Zposition Zrotation Xrotation Yrotation
                    JOINT head //
                    {
                      OFFSET -1.9515e-17 4.6908 0.74295
                      CHANNELS 6 Xposition Yposition Zposition Zrotation Xrotation Yrotation
                      End Site
                      {
                        OFFSET 0 0.1 0
                      }
                    }
                  }
                }
                JOINT l_shoulder
                {
                  OFFSET 1.19736 -7.38744 7.31601
                  CHANNELS 6 Xposition Yposition Zposition Zrotation Xrotation Yrotation
                  JOINT l_up_arm
                  {
                    OFFSET 12.5803 3.15559 -3.17425
                    CHANNELS 6 Xposition Yposition Zposition Zrotation Xrotation Yrotation
                    JOINT l_low_arm
                    {
                      OFFSET 28.3639 0.0580795 0.133078
                      CHANNELS 6 Xposition Yposition Zposition Zrotation Xrotation Yrotation
                      JOINT l_hand //
                      {
                        OFFSET 23.5335 0.0481878 0.110415
                        CHANNELS 6 Xposition Yposition Zposition Zrotation Xrotation Yrotation
                        End Site
                        {
                          OFFSET 0.1 0 0
                        }
                      }
                    }
                  }
                }
                JOINT r_shoulder
                {
                  OFFSET -1.19736 -7.38743 7.31591
                  CHANNELS 6 Xposition Yposition Zposition Zrotation Xrotation Yrotation
                  JOINT r_up_arm
                  {
                    OFFSET -12.5803 3.15559 -3.17425
                    CHANNELS 6 Xposition Yposition Zposition Zrotation Xrotation Yrotation
                    JOINT r_low_arm
                    {
                      OFFSET -28.3639 0.0580795 0.133078
                      CHANNELS 6 Xposition Yposition Zposition Zrotation Xrotation Yrotation
                      JOINT r_hand //
                      {
                        OFFSET -23.5335 0.0481876 0.110415
                        CHANNELS 6 Xposition Yposition Zposition Zrotation Xrotation Yrotation
                        End Site
                        {
                          OFFSET -0.1 0 0
                        }
                      }
                    }
                  }
                }
              }
            }
          }
        }
      }
    }
  }
  JOINT l_up_leg
  {
    OFFSET 8.96978 -4.08401 1.97395
    CHANNELS 6 Xposition Yposition Zposition Zrotation Xrotation Yrotation
    JOINT l_low_leg
    {
      OFFSET -0.827718 -37.6515 -0.63625
      CHANNELS 6 Xposition Yposition Zposition Zrotation Xrotation Yrotation
      JOINT l_foot
      {
        OFFSET -2.25899 -39.2341 -5.87393
        CHANNELS 6 Xposition Yposition Zposition Zrotation Xrotation Yrotation
        JOINT l_toes 
        {
          OFFSET 0.756579 -9.59872 12.1348
          CHANNELS 6 Xposition Yposition Zposition Zrotation Xrotation Yrotation
          End Site
          {
            OFFSET 0 0 0.1
          }
        }
      }
    }
  }
  JOINT r_up_leg
  {
    OFFSET -8.96978 -4.08401 1.97395
    CHANNELS 6 Xposition Yposition Zposition Zrotation Xrotation Yrotation
    JOINT r_low_leg
    {
      OFFSET 0.827718 -37.6515 -0.63625
      CHANNELS 6 Xposition Yposition Zposition Zrotation Xrotation Yrotation
      JOINT r_foot
      {
        OFFSET 2.25899 -39.2341 -5.87393
        CHANNELS 6 Xposition Yposition Zposition Zrotation Xrotation Yrotation
        JOINT r_toes
        {
          OFFSET -0.756579 -9.59872 12.1348
          CHANNELS 6 Xposition Yposition Zposition Zrotation Xrotation Yrotation
          End Site
          {
            OFFSET 0 0 0.1
          }
        }
      }
    }
  }
}
MOTION
Frames: 8
Frame Time: 0.020000
27.8524 96.7937 -72.9146 -3.89679 -13.2816 -91.9529 0 4.93189 -1.1181 -3.4916 4.21738 -1.50564 0 5.45428 1.04046 -2.57775 4.06808 -2.00176 -9.96389e-18 5.81666 0.111686 -1.95893 4.32409 -1.94833 -1.07264e-17 6.3178 -0.430704 -1.19458 4.7469 -2.07188 -1.91593e-17 7.38567 -1.4624 -0.876275 4.49465 -1.92145 -2.45986e-17 9.22288 -0.888062 -0.435177 4.50799 -2.13313 -2.82008e-17 10.2464 1.53133 0.000737421 0.0385688 -0.0479477 -1.25459e-17 4.64811 0.694664 -0.750279 3.73331 1.12271 -1.75924e-17 4.68175 0.4096 -0.731544 -0.063948 0.11542 -1.9515e-17 4.6908 0.74295 -3.01082 1.71262 5.91407 1.19736 -7.38744 7.31601 9.57334 -0.347453 -5.55516 12.5803 3.15559 -3.17425 -93.767 23.4598 -12.2639 28.3639 0.0580795 0.133078 1.54595 -0.092772 -7.47046 23.5335 0.0481878 0.110415 1.44036 -59.6897 -7.89539 -1.19736 -7.38743 7.31591 1.15689 -0.178702 2.92128 -12.5803 3.15559 -3.17425 83.5405 13.8434 8.34961 -28.3639 0.0580795 0.133078 -1.60819 -0.10092 7.77267 -23.5335 0.0481876 0.110415 1.84235 -70.0196 3.63598 8.96978 -4.08401 1.97395 78.1642 -9.15526 51.5042 -0.827718 -37.6515 -0.63625 -17.7519 49.6299 7.31962 -2.25899 -39.2341 -5.87393 -22.0425 10.8871 13.9602 0.756579 -9.59872 12.1348 4.34337e-15 -6.14133e-16 -1.68582e-16 -8.96978 -4.08401 1.97395 -13.9155 -5.20966 7.76199 0.827718 -37.6515 -0.63625 1.01879 3.80464 0.0325911 2.25899 -39.2341 -5.87393 9.94827 26.4052 -16.1257 -0.756579 -9.59872 12.1348 2.2293e-15 -6.88285e-16 -1.28638e-14 
27.8335 96.8005 -72.9345 -3.8559 -13.2732 -91.9795 0 4.93189 -1.1181 -3.47129 4.19962 -1.50656 0 5.45428 1.04046 -2.56574 4.04771 -2.00016 -9.96389e-18 5.81666 0.111686 -1.95253 4.30104 -1.9459 -1.07264e-17 6.3178 -0.430704 -1.19457 4.71738 -2.06933 -1.91593e-17 7.38567 -1.4624 -0.880336 4.46581 -1.92001 -2.45986e-17 9.22288 -0.888062 -0.446329 4.47621 -2.12957 -2.82008e-17 10.2464 1.53133 0.000333047 0.0387015 -0.0481409 -1.25459e-17 4.64811 0.694664 -0.756358 3.77966 1.05644 -1.75924e-17 4.68175 0.4096 -0.740164 -0.0367823 0.0873592 -1.9515e-17 4.6908 0.74295 -3.05381 1.73253 5.90447 1.19736 -7.38744 7.31601 9.54529 -0.330512 -5.52181 12.5803 3.15559 -3.17425 -93.9072 23.2674 -11.9565 28.3639 0.0580795 0.133078 1.54786 -0.0930119 -7.47971 23.5335 0.0481878 0.110415 1.2988 -60.2031 -8.00883 -1.19736 -7.38743 7.31591 0.973884 -0.193358 2.83397 -12.5803 3.15559 -3.17425 83.7159 13.9668 8.1613 -28.3639 0.0580795 0.133078 -1.6166 -0.102026 7.81355 -23.5335 0.0481876 0.110415 1.92274 -70.059 3.66497 8.96978 -4.08401 1.97395 77.9639 -9.04684 51.4745 -0.827718 -37.6515 -0.63625 -17.6452 49.4609 7.2415 -2.25899 -39.2341 -5.87393 -22.1035 10.6862 13.8986 0.756579 -9.59872 12.1348 5.45134e-16 -7.76598e-16 -6.11679e-18 -8.96978 -4.08401 1.97395 -13.8859 -5.24143 7.82143 0.827718 -37.6515 -0.63625 1.01268 3.78181 0.0325974 2.25899 -39.2341 -5.87393 9.94002 26.4427 -16.1202 -0.756579 -9.59872 12.1348 -3.32413e-15 -4.45361e-16 -1.26209e-14 
27.8208 96.849 -72.9606 -3.81283 -13.2808 -92.0321 0 4.93189 -1.1181 -3.45452 4.16158 -1.50415 0 5.45428 1.04046 -2.55702 4.01693 -1.99544 -9.96389e-18 5.81666 0.111686 -1.94955 4.27746 -1.94023 -1.07264e-17 6.3178 -0.430704 -1.19758 4.70293 -2.06363 -1.91593e-17 7.38567 -1.4624 -0.887147 4.46014 -1.91507 -2.45986e-17 9.22288 -0.888062 -0.458602 4.47263 -2.12254 -2.82008e-17 10.2464 1.53133 -8.45192e-05 0.0384796 -0.0484207 -1.25459e-17 4.64811 0.694664 -0.768755 3.82496 0.992746 -1.75924e-17 4.68175 0.4096 -0.763569 -0.0280296 0.0607377 -1.9515e-17 4.6908 0.74295 -3.11175 1.7154 5.92489 1.19736 -7.38744 7.31601 9.49015 -0.340003 -5.49746 12.5803 3.15559 -3.17425 -94.0232 22.8867 -11.6857 28.3639 0.0580795 0.133078 1.54414 -0.0925439 -7.46164 23.5335 0.0481878 0.110415 1.29968 -60.3983 -7.95778 -1.19736 -7.38743 7.31591 0.813281 -0.235956 2.74076 -12.5803 3.15559 -3.17425 83.9048 14.0376 7.99364 -28.3639 0.0580795 0.133078 -1.62643 -0.103328 7.86134 -23.5335 0.0481876 0.110415 1.98211 -70.1257 3.70719 8.96978 -4.08401 1.97395 77.7158 -8.89002 51.4652 -0.827718 -37.6515 -0.63625 -17.5077 49.2415 7.14124 -2.25899 -39.2341 -5.87393 -22.1732 10.4725 13.8271 0.756579 -9.59872 12.1348 2.57623e-16 -7.82334e-16 2.67746e-18 -8.96978 -4.08401 1.97395 -13.8698 -5.28408 7.88572 0.827718 -37.6515 -0.63625 0.983738 3.67381 0.032594 2.25899 -39.2341 -5.87393 10.0549 26.7957 -16.1605 -0.756579 -9.59872 12.1348 4.19276e-15 -7.71052e-16 -1.29466e-14 
27.8135 96.903 -72.9901 -3.78416 -13.2886 -92.0945 0 4.93189 -1.1181 -3.44423 4.09232 -1.50046 0 5.45428 1.04046 -2.5521 3.9708 -1.98981 -9.96389e-18 5.81666 0.111686 -1.94943 4.25473 -1.93423 -1.07264e-17 6.3178 -0.430704 -1.20168 4.71591 -2.05754 -1.91593e-17 7.38567 -1.4624 -0.895125 4.4945 -1.90991 -2.45986e-17 9.22288 -0.888062 -0.471766 4.51783 -2.11597 -2.82008e-17 10.2464 1.53133 -0.000493467 0.0376482 -0.0487956 -1.25459e-17 4.64811 0.694664 -0.786561 3.85266 0.937662 -1.75924e-17 4.68175 0.4096 -0.789954 -0.048212 0.0373555 -1.9515e-17 4.6908 0.74295 -3.16115 1.66991 5.97756 1.19736 -7.38744 7.31601 9.40523 -0.384927 -5.48194 12.5803 3.15559 -3.17425 -94.1158 22.2972 -11.4774 28.3639 0.0580795 0.133078 1.52484 -0.090134 -7.36791 23.5335 0.0481878 0.110415 1.44747 -60.2025 -7.77025 -1.19736 -7.38743 7.31591 0.705848 -0.313636 2.6542 -12.5803 3.15559 -3.17425 84.0497 14.0386 7.90546 -28.3639 0.0580795 0.133078 -1.62746 -0.103465 7.86637 -23.5335 0.0481876 0.110415 1.95887 -70.1169 3.65366 8.96978 -4.08401 1.97395 77.4815 -8.73164 51.4361 -0.827718 -37.6515 -0.63625 -17.3717 49.0222 7.04236 -2.25899 -39.2341 -5.87393 -22.2582 10.2875 13.7565 0.756579 -9.59872 12.1348 -3.66158e-16 -8.08325e-16 3.49756e-17 -8.96978 -4.08401 1.97395 -13.8545 -5.32267 7.94076 0.827718 -37.6515 -0.63625 0.952899 3.5587 0.0325302 2.25899 -39.2341 -5.87393 10.2047 27.199 -16.2165 -0.756579 -9.59872 12.1348 1.77078e-15 -6.70136e-16 -1.28457e-14 
27.8076 96.9598 -73.0202 -3.75193 -13.2973 -92.1626 0 4.93189 -1.1181 -3.43879 4.00317 -1.49342 0 5.45428 1.04046 -2.55045 3.91454 -1.98174 -9.96389e-18 5.81666 0.111686 -1.95165 4.23158 -1.92635 -1.07264e-17 6.3178 -0.430704 -1.20655 4.74381 -2.04981 -1.91593e-17 7.38567 -1.4624 -0.903057 4.55125 -1.9031 -2.45986e-17 9.22288 -0.888062 -0.483342 4.59084 -2.10884 -2.82008e-17 10.2464 1.53133 -0.000870417 0.0364882 -0.0492319 -1.25459e-17 4.64811 0.694664 -0.805483 3.84394 0.905638 -1.75924e-17 4.68175 0.4096 -0.807782 -0.069477 0.0244327 -1.9515e-17 4.6908 0.74295 -3.21389 1.63247 6.02644 1.19736 -7.38744 7.31601 9.29209 -0.443929 -5.48523 12.5803 3.15559 -3.17425 -94.1923 21.5434 -11.2898 28.3639 0.0580795 0.133078 1.49175 -0.0860767 -7.20728 23.5335 0.0481878 0.110415 1.63459 -59.7088 -7.57509 -1.19736 -7.38743 7.31591 0.667841 -0.396803 2.58963 -12.5803 3.15559 -3.17425 84.1164 14.0179 7.88604 -28.3639 0.0580795 0.133078 -1.62047 -0.102538 7.83236 -23.5335 0.0481876 0.110415 1.83266 -70.0883 3.46774 8.96978 -4.08401 1.97395 77.2545 -8.57167 51.4123 -0.827718 -37.6515 -0.63625 -17.2354 48.8004 6.94366 -2.25899 -39.2341 -5.87393 -22.3536 10.1091 13.6829 0.756579 -9.59872 12.1348 3.23025e-15 -6.58474e-16 -1.2424e-16 -8.96978 -4.08401 1.97395 -13.8407 -5.36331 7.99388 0.827718 -37.6515 -0.63625 0.918376 3.42983 0.0323852 2.25899 -39.2341 -5.87393 10.3781 27.6249 -16.2845 -0.756579 -9.59872 12.1348 3.21408e-15 -7.28235e-16 -1.29038e-14 
27.7997 97.0217 -73.0478 -3.72325 -13.2849 -92.2169 0 4.93189 -1.1181 -3.42559 3.90782 -1.48362 0 5.45428 1.04046 -2.54259 3.85649 -1.97051 -9.96389e-18 5.81666 0.111686 -1.94918 4.21044 -1.91581 -1.07264e-17 6.3178 -0.430704 -1.20822 4.77911 -2.03968 -1.91593e-17 7.38567 -1.4624 -0.90909 4.61813 -1.89449 -2.45986e-17 9.22288 -0.888062 -0.494333 4.6761 -2.10025 -2.82008e-17 10.2464 1.53133 -0.00126729 0.0352696 -0.0496499 -1.25459e-17 4.64811 0.694664 -0.826416 3.80875 0.883039 -1.75924e-17 4.68175 0.4096 -0.826289 -0.0744729 0.0152256 -1.9515e-17 4.6908 0.74295 -3.25868 1.61684 6.05861 1.19736 -7.38744 7.31601 9.15378 -0.508298 -5.50604 12.5803 3.15559 -3.17425 -94.2657 20.6594 -11.1108 28.3639 0.0580795 0.133078 1.44875 -0.0809433 -6.99855 23.5335 0.0481878 0.110415 1.83537 -59.0099 -7.38368 -1.19736 -7.38743 7.31591 0.687863 -0.469501 2.55554 -12.5803 3.15559 -3.17425 84.0888 14.0208 7.92291 -28.3639 0.0580795 0.133078 -1.60567 -0.10059 7.76042 -23.5335 0.0481876 0.110415 1.61369 -70.1344 3.14314 8.96978 -4.08401 1.97395 77.0432 -8.42459 51.3943 -0.827718 -37.6515 -0.63625 -17.0984 48.5754 6.84485 -2.25899 -39.2341 -5.87393 -22.4333 9.92981 13.6095 0.756579 -9.59872 12.1348 1.66435e-15 -7.25759e-16 -5.69557e-17 -8.96978 -4.08401 1.97395 -13.8083 -5.39385 8.03971 0.827718 -37.6515 -0.63625 0.879215 3.28362 0.0321265 2.25899 -39.2341 -5.87393 10.5794 28.1121 -16.3661 -0.756579 -9.59872 12.1348 -1.03049e-15 -5.48193e-16 -1.27238e-14 
27.7926 97.0887 -73.0728 -3.70855 -13.2777 -92.2494 0 4.93189 -1.1181 -3.41156 3.83452 -1.47269 0 5.45428 1.04046 -2.53489 3.8136 -1.95865 -9.96389e-18 5.81666 0.111686 -1.94721 4.19528 -1.90485 -1.07264e-17 6.3178 -0.430704 -1.21092 4.80625 -2.02929 -1.91593e-17 7.38567 -1.4624 -0.916263 4.66831 -1.88517 -2.45986e-17 9.22288 -0.888062 -0.506514 4.74092 -2.09005 -2.82008e-17 10.2464 1.53133 -0.0016998 0.0342634 -0.0500393 -1.25459e-17 4.64811 0.694664 -0.844317 3.74302 0.882331 -1.75924e-17 4.68175 0.4096 -0.831173 -0.0722062 0.0160369 -1.9515e-17 4.6908 0.74295 -3.28322 1.64089 6.06641 1.19736 -7.38744 7.31601 9.00913 -0.557028 -5.54486 12.5803 3.15559 -3.17425 -94.3371 19.7178 -10.9156 28.3639 0.0580795 0.133078 1.40145 -0.0754816 -6.76912 23.5335 0.0481878 0.110415 2.07183 -58.157 -7.15871 -1.19736 -7.38743 7.31591 0.713388 -0.514537 2.53315 -12.5803 3.15559 -3.17425 84.0289 14.0853 7.96144 -28.3639 0.0580795 0.133078 -1.58694 -0.0981527 7.66943 -23.5335 0.0481876 0.110415 1.43976 -70.3166 2.83182 8.96978 -4.08401 1.97395 76.803 -8.29405 51.3562 -0.827718 -37.6515 -0.63625 -16.9535 48.335 6.74074 -2.25899 -39.2341 -5.87393 -22.5102 9.75246 13.5369 0.756579 -9.59872 12.1348 -2.25005e-15 -8.95103e-16 1.12388e-16 -8.96978 -4.08401 1.97395 -13.7861 -5.40822 8.0817 0.827718 -37.6515 -0.63625 0.838627 3.13207 0.0317527 2.25899 -39.2341 -5.87393 10.7961 28.6417 -16.4556 -0.756579 -9.59872 12.1348 3.12843e-15 -7.25749e-16 -1.29013e-14 
27.7885 97.1585 -73.0974 -3.71601 -13.2643 -92.258 0 4.93189 -1.1181 -3.39249 3.79752 -1.46433 0 5.45428 1.04046 -2.52385 3.79557 -1.94903 -9.96389e-18 5.81666 0.111686 -1.94287 4.19038 -1.89594 -1.07264e-17 6.3178 -0.430704 -1.21278 4.82103 -2.02082 -1.91593e-17 7.38567 -1.4624 -0.923572 4.69277 -1.87802 -2.45986e-17 9.22288 -0.888062 -0.520283 4.7727 -2.08102 -2.82008e-17 10.2464 1.53133 -0.00220534 0.0335896 -0.050427 -1.25459e-17 4.64811 0.694664 -0.858714 3.67791 0.894077 -1.75924e-17 4.68175 0.4096 -0.828507 -0.0541075 0.0223426 -1.9515e-17 4.6908 0.74295 -3.277 1.6704 6.05699 1.19736 -7.38744 7.31601 8.87274 -0.588339 -5.60069 12.5803 3.15559 -3.17425 -94.4072 18.7365 -10.7137 28.3639 0.0580795 0.133078 1.35157 -0.0699286 -6.52723 23.5335 0.0481878 0.110415 2.34108 -57.1779 -6.88307 -1.19736 -7.38743 7.31591 0.705145 -0.53401 2.51111 -12.5803 3.15559 -3.17425 84.0046 14.2208 7.95868 -28.3639 0.0580795 0.133078 -1.56858 -0.0957913 7.5802 -23.5335 0.0481876 0.110415 1.36206 -70.5634 2.62404 8.96978 -4.08401 1.97395 76.5477 -8.16955 51.3001 -0.827718 -37.6515 -0.63625 -16.7986 48.0755 6.62997 -2.25899 -39.2341 -5.87393 -22.5905 9.54331 13.4559 0.756579 -9.59872 12.1348 2.30668e-15 -7.00142e-16 -7.95144e-17 -8.96978 -4.08401 1.97395 -13.759 -5.3978 8.11739 0.827718 -37.6515 -0.63625 0.796827 2.97597 0.0312554 2.25899 -39.2341 -5.87393 11.0209 29.2182 -16.5502 -0.756579 -9.59872 12.1348 -5.08582e-15 -3.68899e-16 -1.25475e-14 
